<svg width="510px" height="255px" viewBox="0 0 1020 510" xmlns="http://www.w3.org/2000/svg"><g fill="#000" fill-rule="evenodd" opacity=".05"><path d="m143.41 380.81c-3.081-1.303-5.731-3.087-7.968-5.36-2.245-2.281-4-4.968-5.277-8.08-1.273-3.105-1.911-6.464-1.911-10.09 0-3.629.638-6.987 1.911-10.09 1.275-3.11 3.03-5.797 5.277-8.08 2.24-2.276 4.893-4.07 7.979-5.391 3.057-1.309 6.377-1.965 9.986-1.965 3.607 0 6.916.655 9.953 1.963 3.069 1.321 5.715 3.116 7.957 5.394 2.245 2.281 4 4.968 5.277 8.08 1.273 3.105 1.911 6.464 1.911 10.09 0 3.629-.638 6.987-1.911 10.09-1.275 3.11-3.03 5.797-5.277 8.08-2.239 2.275-4.881 4.059-7.945 5.362-3.04 1.293-6.353 1.941-9.965 1.941-3.613 0-6.937-.649-9.997-1.943m21.63 17.47c3.664-.981 7.077-2.381 10.236-4.202 3.159-1.821 6.02-4.02 8.563-6.583 2.546-2.565 4.722-5.428 6.523-8.586 1.8-3.154 3.19-6.555 4.169-10.196.983-3.653 1.473-7.475 1.473-11.46 0-3.984-.49-7.814-1.472-11.483-.98-3.662-2.371-7.07-4.173-10.205-1.801-3.138-3.976-5.991-6.52-8.554-2.548-2.567-5.404-4.762-8.563-6.583-3.158-1.821-6.572-3.221-10.236-4.202-3.67-.982-7.517-1.472-11.535-1.472-4.02 0-7.866.49-11.535 1.472-3.664.981-7.077 2.381-10.236 4.202-3.157 1.82-6.02 4.01-8.583 6.577-2.565 2.565-4.75 5.42-6.553 8.561-1.804 3.143-3.188 6.551-4.151 10.217-.963 3.665-1.443 7.491-1.443 11.471 0 5.977 1.075 11.565 3.228 16.744 2.147 5.164 5.119 9.668 8.909 13.496 3.796 3.833 8.296 6.836 13.483 9 5.198 2.172 10.831 3.256 16.879 3.256 4.02 0 7.866-.49 11.535-1.472"/><path d="m347.41 278.81c-3.081-1.303-5.731-3.087-7.968-5.36-2.245-2.281-4-4.968-5.277-8.08-1.273-3.105-1.911-6.464-1.911-10.09 0-3.629.638-6.987 1.911-10.09 1.275-3.11 3.03-5.797 5.277-8.08 2.24-2.276 4.893-4.07 7.979-5.391 3.057-1.309 6.377-1.965 9.986-1.965 3.607 0 6.916.655 9.953 1.963 3.069 1.321 5.715 3.116 7.957 5.394 2.245 2.281 4 4.968 5.277 8.08 1.273 3.105 1.911 6.464 1.911 10.09 0 3.629-.638 6.987-1.911 10.09-1.275 3.11-3.03 5.797-5.277 8.08-2.239 2.275-4.881 4.059-7.945 5.362-3.04 1.293-6.353 1.941-9.965 1.941-3.613 0-6.937-.649-9.997-1.943m21.63 17.47c3.664-.981 7.077-2.381 10.236-4.202 3.159-1.821 6.02-4.02 8.563-6.583 2.546-2.565 4.722-5.428 6.523-8.586 1.8-3.154 3.19-6.555 4.169-10.196.983-3.653 1.473-7.475 1.473-11.46 0-3.984-.49-7.814-1.472-11.483-.98-3.662-2.371-7.07-4.173-10.205-1.801-3.138-3.976-5.991-6.52-8.554-2.548-2.567-5.404-4.762-8.563-6.583-3.158-1.821-6.572-3.221-10.236-4.202-3.67-.982-7.517-1.472-11.535-1.472-4.02 0-7.866.49-11.535 1.472-3.664.981-7.077 2.381-10.236 4.202-3.157 1.82-6.02 4.01-8.583 6.577-2.565 2.565-4.75 5.42-6.553 8.561-1.804 3.143-3.188 6.551-4.151 10.217-.963 3.665-1.443 7.491-1.443 11.471 0 5.977 1.075 11.565 3.228 16.744 2.147 5.164 5.119 9.668 8.909 13.496 3.796 3.833 8.296 6.836 13.483 9 5.198 2.172 10.831 3.256 16.879 3.256 4.02 0 7.866-.49 11.535-1.472"/><path d="m551.41 176.56c-3.081-1.303-5.731-3.087-7.968-5.36-2.245-2.281-4-4.968-5.277-8.08-1.273-3.105-1.911-6.464-1.911-10.09 0-3.629.638-6.987 1.911-10.09 1.275-3.11 3.03-5.797 5.277-8.08 2.24-2.276 4.893-4.07 7.979-5.391 3.057-1.309 6.377-1.965 9.986-1.965 3.607 0 6.916.655 9.953 1.963 3.069 1.321 5.715 3.116 7.957 5.394 2.245 2.281 4 4.968 5.277 8.08 1.273 3.105 1.911 6.464 1.911 10.09 0 3.629-.638 6.987-1.911 10.09-1.275 3.11-3.03 5.797-5.277 8.08-2.239 2.275-4.881 4.059-7.945 5.362-3.04 1.293-6.353 1.941-9.965 1.941-3.613 0-6.937-.649-9.997-1.943m21.63 17.47c3.664-.981 7.077-2.381 10.236-4.202 3.159-1.821 6.02-4.02 8.563-6.583 2.546-2.565 4.722-5.428 6.523-8.586 1.8-3.154 3.19-6.555 4.169-10.196.983-3.653 1.473-7.475 1.473-11.46 0-3.984-.49-7.814-1.472-11.483-.98-3.662-2.371-7.07-4.173-10.205-1.801-3.138-3.976-5.991-6.52-8.554-2.548-2.567-5.404-4.762-8.563-6.583-3.158-1.821-6.572-3.221-10.236-4.202-3.67-.982-7.517-1.472-11.535-1.472-4.02 0-7.866.49-11.535 1.472-3.664.981-7.077 2.381-10.236 4.202-3.157 1.82-6.02 4.01-8.583 6.577-2.565 2.565-4.75 5.42-6.553 8.561-1.804 3.143-3.188 6.551-4.151 10.217-.963 3.665-1.443 7.491-1.443 11.471 0 5.977 1.075 11.565 3.228 16.744 2.147 5.164 5.119 9.668 8.909 13.496 3.796 3.833 8.296 6.836 13.483 9 5.198 2.172 10.831 3.256 16.879 3.256 4.02 0 7.866-.49 11.535-1.472"/><path d="m755.41 74.81c-3.081-1.303-5.731-3.087-7.968-5.36-2.245-2.281-4-4.968-5.277-8.08-1.273-3.105-1.911-6.464-1.911-10.09 0-3.629.638-6.987 1.911-10.09 1.275-3.11 3.03-5.797 5.277-8.08 2.24-2.276 4.893-4.07 7.979-5.391 3.057-1.309 6.377-1.965 9.986-1.965 3.607 0 6.916.655 9.953 1.963 3.069 1.321 5.715 3.116 7.957 5.394 2.245 2.281 4 4.968 5.277 8.08 1.273 3.105 1.911 6.464 1.911 10.09 0 3.629-.638 6.987-1.911 10.09-1.275 3.11-3.03 5.797-5.277 8.08-2.239 2.275-4.881 4.059-7.945 5.362-3.04 1.293-6.353 1.941-9.965 1.941-3.613 0-6.937-.649-9.997-1.943m21.63 17.47c3.664-.981 7.077-2.381 10.236-4.202 3.159-1.821 6.02-4.02 8.563-6.583 2.546-2.565 4.722-5.428 6.523-8.586 1.8-3.154 3.19-6.555 4.169-10.196.983-3.653 1.473-7.475 1.473-11.46 0-3.984-.49-7.814-1.472-11.483-.98-3.662-2.371-7.07-4.173-10.205-1.801-3.138-3.976-5.991-6.52-8.554-2.548-2.567-5.404-4.762-8.563-6.583-3.158-1.821-6.572-3.221-10.236-4.202-3.67-.982-7.517-1.472-11.535-1.472-4.02 0-7.866.49-11.535 1.472-3.664.981-7.077 2.381-10.236 4.202-3.157 1.82-6.02 4.01-8.583 6.577-2.565 2.565-4.75 5.42-6.553 8.561-1.804 3.143-3.188 6.551-4.151 10.217-.963 3.665-1.443 7.491-1.443 11.471 0 5.977 1.075 11.565 3.228 16.744 2.147 5.164 5.119 9.668 8.909 13.496 3.796 3.833 8.296 6.836 13.483 9 5.198 2.172 10.831 3.256 16.879 3.256 4.02 0 7.866-.49 11.535-1.472"/><path d="m959.16 483.31c-3.081-1.303-5.731-3.087-7.968-5.36-2.245-2.281-4-4.968-5.277-8.08-1.273-3.105-1.911-6.464-1.911-10.09 0-3.629.638-6.987 1.911-10.09 1.275-3.11 3.03-5.797 5.277-8.08 2.24-2.276 4.893-4.07 7.979-5.391 3.057-1.309 6.377-1.965 9.986-1.965 3.607 0 6.916.655 9.953 1.963 3.069 1.321 5.715 3.116 7.957 5.394 2.245 2.281 4 4.968 5.277 8.08 1.273 3.105 1.911 6.464 1.911 10.09 0 3.629-.638 6.987-1.911 10.09-1.275 3.11-3.03 5.797-5.277 8.08-2.239 2.275-4.881 4.059-7.945 5.362-3.04 1.293-6.353 1.941-9.965 1.941-3.613 0-6.937-.649-9.997-1.943m21.63 17.47c3.664-.981 7.077-2.381 10.236-4.202 3.159-1.821 6.02-4.02 8.563-6.583 2.546-2.565 4.722-5.428 6.523-8.586 1.8-3.154 3.19-6.555 4.169-10.196.983-3.653 1.473-7.475 1.473-11.46 0-3.984-.49-7.814-1.472-11.483-.98-3.662-2.371-7.07-4.173-10.205-1.801-3.138-3.976-5.991-6.52-8.554-2.548-2.567-5.404-4.762-8.563-6.583-3.158-1.821-6.572-3.221-10.236-4.202-3.67-.982-7.517-1.472-11.535-1.472-4.02 0-7.866.49-11.535 1.472-3.664.981-7.077 2.381-10.236 4.202-3.157 1.82-6.02 4.01-8.583 6.577-2.565 2.565-4.75 5.42-6.553 8.561-1.804 3.143-3.188 6.551-4.151 10.217-.963 3.665-1.443 7.491-1.443 11.471 0 5.977 1.075 11.565 3.228 16.744 2.147 5.164 5.119 9.668 8.909 13.496 3.796 3.833 8.296 6.836 13.483 9 5.198 2.172 10.831 3.256 16.879 3.256 4.02 0 7.866-.49 11.535-1.472"/><path d="m153.97 33.873l8.662 23.494h-17.25l8.588-23.494m22.21 59.63h1.711 14.386 3.728l-1.412-3.576-31.524-79.81-.636-1.611h-1.68-13.191-1.679l-.637 1.61-31.576 79.81-1.415 3.577h3.731 13.918 1.698l.628-1.635 6.889-17.853c0 .005 29.751 0 29.751 0 0 .038 6.689 17.835 6.689 17.835l.621 1.652"/><path d="m969.72 136.37l8.662 23.494h-17.25l8.588-23.494m22.21 59.63h1.711 14.386 3.728l-1.412-3.576-31.524-79.81-.636-1.611h-1.68-13.191-1.679l-.637 1.61-31.576 79.81-1.415 3.577h3.731 13.918 1.698l.628-1.635 6.889-17.853c0 .005 29.751 0 29.751 0 0 .038 6.689 17.835 6.689 17.835l.621 1.652"/><path d="m764.97 237.87l8.662 23.494h-17.25l8.588-23.494m22.21 59.63h1.711 14.386 3.728l-1.412-3.576-31.524-79.81-.636-1.611h-1.68-13.191-1.679l-.637 1.61-31.576 79.81-1.415 3.577h3.731 13.918 1.698l.628-1.635 6.889-17.853c0 .005 29.751 0 29.751 0 0 .038 6.689 17.835 6.689 17.835l.621 1.652"/><path d="m561.97 339.87l8.662 23.494h-17.25l8.588-23.494m22.21 59.63h1.711 14.386 3.728l-1.412-3.576-31.524-79.81-.636-1.611h-1.68-13.191-1.679l-.637 1.61-31.576 79.81-1.415 3.577h3.731 13.918 1.698l.628-1.635 6.889-17.853c0 .005 29.751 0 29.751 0 0 .038 6.689 17.835 6.689 17.835l.621 1.652"/><path d="m213 8.5v2.578 79.34 2.578h2.575 30.503c3.897 0 7.539-.174 10.925-.522 3.415-.351 6.601-.898 9.557-1.643 2.987-.752 5.76-1.725 8.317-2.919 2.569-1.2 4.962-2.641 7.174-4.322 2.442-1.834 4.638-3.965 6.572-6.38 1.927-2.406 3.549-5.01 4.864-7.82 1.314-2.802 2.311-5.797 2.993-8.982.68-3.176 1.019-6.46 1.019-9.85 0-3.617-.387-7.103-1.162-10.453-.777-3.356-1.907-6.504-3.391-9.438-1.492-2.948-3.339-5.651-5.539-8.102-2.197-2.448-4.69-4.59-7.475-6.423-4.384-2.824-9.261-4.806-14.637-5.958-5.263-1.128-11.08-1.689-17.454-1.689h-32.27-2.575m19.05 66.989v-49.42l13.867-.001c2.122 0 4.19.061 6.205.183 1.963.119 3.853.347 5.672.684 1.778.33 3.477.798 5.099 1.405 1.569.587 3.051 1.356 4.448 2.31 1.454 1.012 2.799 2.207 4.02 3.574 1.207 1.351 2.241 2.864 3.103 4.543.865 1.683 1.532 3.519 2 5.512.47 1.995.706 4.124.706 6.39 0 4.393-.84 8.243-2.507 11.581-1.671 3.346-3.879 6-6.636 8-2.574 1.9-5.568 3.234-9.02 4.01-3.593.811-7.923 1.221-12.982 1.219l-13.974.006"/><path d="m9 112v2.578 79.34 2.578h2.575 30.503c3.897 0 7.539-.174 10.925-.522 3.415-.351 6.601-.898 9.557-1.643 2.987-.752 5.76-1.725 8.317-2.919 2.569-1.2 4.962-2.641 7.174-4.322 2.442-1.834 4.638-3.965 6.572-6.38 1.927-2.406 3.549-5.01 4.864-7.82 1.314-2.802 2.311-5.797 2.993-8.982.68-3.176 1.019-6.46 1.019-9.85 0-3.617-.387-7.103-1.162-10.453-.777-3.356-1.907-6.504-3.391-9.438-1.492-2.948-3.339-5.651-5.539-8.102-2.197-2.448-4.69-4.59-7.475-6.423-4.384-2.824-9.261-4.806-14.637-5.958-5.263-1.128-11.08-1.689-17.454-1.689h-32.27-2.575m19.05 66.989v-49.42l13.867-.001c2.122 0 4.19.061 6.205.183 1.963.119 3.853.347 5.672.684 1.778.33 3.477.798 5.099 1.405 1.569.587 3.051 1.356 4.448 2.31 1.454 1.012 2.799 2.207 4.02 3.574 1.207 1.351 2.241 2.864 3.103 4.543.865 1.683 1.532 3.519 2 5.512.47 1.995.706 4.124.706 6.39 0 4.393-.84 8.243-2.507 11.581-1.671 3.346-3.879 6-6.636 8-2.574 1.9-5.568 3.234-9.02 4.01-3.593.811-7.923 1.221-12.982 1.219l-13.974.006"/><path d="m315 93.5h2.612 79.48 2.612v-2.593-12.432-2.593h-2.612l-62.774-.006v-18l48.965-.003h2.612v-2.593-11.894-2.593h-2.612l-48.965-.004v-14.613l63.07-.002h2.612v-2.593-12.486-2.593h-2.612-79.78-2.612v2.593 79.81 2.593"/><path d="m620 314.5v2.578 79.34 2.578h2.575 30.503c3.897 0 7.539-.174 10.925-.522 3.415-.351 6.601-.898 9.557-1.643 2.987-.752 5.76-1.725 8.317-2.919 2.569-1.2 4.962-2.641 7.174-4.322 2.442-1.834 4.638-3.965 6.572-6.38 1.927-2.406 3.549-5.01 4.864-7.82 1.314-2.802 2.311-5.797 2.993-8.982.68-3.176 1.019-6.46 1.019-9.85 0-3.617-.387-7.103-1.162-10.453-.777-3.356-1.907-6.504-3.391-9.438-1.492-2.948-3.339-5.651-5.539-8.102-2.197-2.448-4.69-4.59-7.475-6.423-4.384-2.824-9.261-4.806-14.637-5.958-5.263-1.128-11.08-1.689-17.454-1.689h-32.27-2.575m19.05 66.989v-49.42l13.867-.001c2.122 0 4.19.061 6.205.183 1.963.119 3.853.347 5.672.684 1.778.33 3.477.798 5.099 1.405 1.569.587 3.051 1.356 4.448 2.31 1.454 1.012 2.799 2.207 4.02 3.574 1.207 1.351 2.241 2.864 3.103 4.543.865 1.683 1.532 3.519 2 5.512.47 1.995.706 4.124.706 6.39 0 4.393-.84 8.243-2.507 11.581-1.671 3.346-3.879 6-6.636 8-2.574 1.9-5.568 3.234-9.02 4.01-3.593.811-7.923 1.221-12.982 1.219l-13.974.006"/><path d="m722 399.5h2.612 79.48 2.612v-2.593-12.432-2.593h-2.612l-62.774-.006v-18l48.965-.003h2.612v-2.593-11.894-2.593h-2.612l-48.965-.004v-14.613l63.07-.002h2.612v-2.593-12.486-2.593h-2.612-79.78-2.612v2.593 79.81 2.593"/><path d="m824.75 212.5v2.578 79.34 2.578h2.575 30.503c3.897 0 7.539-.174 10.925-.522 3.415-.351 6.601-.898 9.557-1.643 2.987-.752 5.76-1.725 8.317-2.919 2.569-1.2 4.962-2.641 7.174-4.322 2.442-1.834 4.638-3.965 6.572-6.38 1.927-2.406 3.549-5.01 4.864-7.82 1.314-2.802 2.311-5.797 2.993-8.982.68-3.176 1.019-6.46 1.019-9.85 0-3.617-.387-7.103-1.162-10.453-.777-3.356-1.907-6.504-3.391-9.438-1.492-2.948-3.339-5.651-5.539-8.102-2.197-2.448-4.69-4.59-7.475-6.423-4.384-2.824-9.261-4.806-14.637-5.958-5.263-1.128-11.08-1.689-17.454-1.689h-32.27-2.575m19.05 66.989v-49.42l13.867-.001c2.122 0 4.19.061 6.205.183 1.963.119 3.853.347 5.672.684 1.778.33 3.477.798 5.099 1.405 1.569.587 3.051 1.356 4.448 2.31 1.454 1.012 2.799 2.207 4.02 3.574 1.207 1.351 2.241 2.864 3.103 4.543.865 1.683 1.532 3.519 2 5.512.47 1.995.706 4.124.706 6.39 0 4.393-.84 8.243-2.507 11.581-1.671 3.346-3.879 6-6.636 8-2.574 1.9-5.568 3.234-9.02 4.01-3.593.811-7.923 1.221-12.982 1.219l-13.974.006"/><path d="m926.75 297.5h2.612 79.48 2.612v-2.593-12.432-2.593h-2.612l-62.774-.006v-18l48.965-.003h2.612v-2.593-11.894-2.593h-2.612l-48.965-.004v-14.613l63.07-.002h2.612v-2.593-12.486-2.593h-2.612-79.78-2.612v2.593 79.81 2.593"/><path d="m417 8v2.593 79.81 2.593h2.609 40.623c2.956 0 5.671-.101 8.147-.305 2.499-.205 4.821-.524 6.965-.958 2.178-.441 4.178-1.01 5.998-1.71 1.815-.698 3.51-1.517 5.084-2.455 4.13-2.511 7.158-5.602 9.05-9.278 1.85-3.598 2.776-7.501 2.776-11.675 0-5.589-1.501-10.3-4.531-14.03-3.02-3.716-7.147-5.49-7.147-5.49 0 0 3.192-2.458 4.446-4.02 1.275-1.584 2.259-3.393 2.95-5.413.692-2.02 1.032-4.248 1.032-6.675 0-4.123-.954-7.761-2.88-10.862-1.889-3.042-4.512-5.536-7.832-7.468-1.515-.872-3.106-1.609-4.782-2.216-1.674-.607-3.5-1.092-5.478-1.459-1.946-.36-4.06-.615-6.342-.765-2.244-.147-4.728-.221-7.454-.221h-40.623-2.609m19.295 33.962v-16.5l23.07-.005c1.726 0 3.26.035 4.602.104 1.311.068 2.476.177 3.49.326.966.142 1.829.335 2.591.577.732.233 1.395.519 1.991.858 1.194.663 2.085 1.495 2.732 2.533.612.98.935 2.258.935 3.88 0 1.497-.268 2.704-.776 3.65-.535.998-1.255 1.818-2.18 2.484-.965.695-2.119 1.212-3.481 1.547-1.467.361-3.071.543-4.815.543l-28.16.003m0 33.638v-18.438l28.594-.006c4.893 0 8.506.859 10.863 2.474 2.119 1.453 3.15 3.56 3.15 6.611 0 1.912-.338 3.332-.949 4.291-.702 1.103-1.533 1.95-2.503 2.565-.62.41-1.309.749-2.113 1.04-.862.312-1.864.583-3 .809-1.143.227-2.484.393-4.02.493-1.582.104-3.375.156-5.378.156l-24.641.004"/><path d="m552.25 90.91v2.593h2.574 13.889 2.574v-2.593-35.22l29.877-43.11 2.837-4.081h-4.946-15.652-1.364l-.766 1.137-19.315 28.753-19.43-28.756-.766-1.134h-1.362-16.186-4.964l2.859 4.087c0 0 30.15 43.1 30.14 43.1l-.004 35.22"/><path d="m824.75 314.5v2.593 79.81 2.593h2.609 40.623c2.956 0 5.671-.101 8.147-.305 2.499-.205 4.821-.524 6.965-.958 2.178-.441 4.178-1.01 5.998-1.71 1.815-.698 3.51-1.517 5.084-2.455 4.13-2.511 7.158-5.602 9.05-9.278 1.85-3.598 2.776-7.501 2.776-11.675 0-5.589-1.501-10.3-4.531-14.03-3.02-3.716-7.147-5.49-7.147-5.49 0 0 3.192-2.458 4.446-4.02 1.275-1.584 2.259-3.393 2.95-5.413.692-2.02 1.032-4.248 1.032-6.675 0-4.123-.954-7.761-2.88-10.862-1.889-3.042-4.512-5.536-7.832-7.468-1.515-.872-3.106-1.609-4.782-2.216-1.674-.607-3.5-1.092-5.478-1.459-1.946-.36-4.06-.615-6.342-.765-2.244-.147-4.728-.221-7.454-.221h-40.623-2.609m19.295 33.962v-16.5l23.07-.005c1.726 0 3.26.035 4.602.104 1.311.068 2.476.177 3.49.326.966.142 1.829.335 2.591.577.732.233 1.395.519 1.991.858 1.194.663 2.085 1.495 2.732 2.533.612.98.935 2.258.935 3.88 0 1.497-.268 2.704-.776 3.65-.535.998-1.255 1.818-2.18 2.484-.965.695-2.119 1.212-3.481 1.547-1.467.361-3.071.543-4.815.543l-28.16.003m0 33.638v-18.438l28.594-.006c4.893 0 8.506.859 10.863 2.474 2.119 1.453 3.15 3.56 3.15 6.611 0 1.912-.338 3.332-.949 4.291-.702 1.103-1.533 1.95-2.503 2.565-.62.41-1.309.749-2.113 1.04-.862.312-1.864.583-3 .809-1.143.227-2.484.393-4.02.493-1.582.104-3.375.156-5.378.156l-24.641.004"/><path d="m960 397.41v2.593h2.574 13.889 2.574v-2.593-35.22l29.877-43.11 2.837-4.081h-4.946-15.652-1.364l-.766 1.137-19.315 28.753-19.43-28.756-.766-1.134h-1.362-16.186-4.964l2.859 4.087c0 0 30.15 43.1 30.14 43.1l-.004 35.22"/><path d="m358.72 442.37l8.662 23.494h-17.25l8.588-23.494m22.21 59.63h1.711 14.386 3.728l-1.412-3.576-31.524-79.81-.636-1.611h-1.68-13.191-1.679l-.637 1.61-31.576 79.81-1.415 3.577h3.731 13.918 1.698l.628-1.635 6.889-17.853c0 .005 29.751 0 29.751 0 0 .038 6.689 17.835 6.689 17.835l.621 1.652"/><path d="m416.75 417v2.578 79.34 2.578h2.575 30.503c3.897 0 7.539-.174 10.925-.522 3.415-.351 6.601-.898 9.557-1.643 2.987-.752 5.76-1.725 8.317-2.919 2.569-1.2 4.962-2.641 7.174-4.322 2.442-1.834 4.638-3.965 6.572-6.38 1.927-2.406 3.549-5.01 4.864-7.82 1.314-2.802 2.311-5.797 2.993-8.982.68-3.176 1.019-6.46 1.019-9.85 0-3.617-.387-7.103-1.162-10.453-.777-3.356-1.907-6.504-3.391-9.438-1.492-2.948-3.339-5.651-5.539-8.102-2.197-2.448-4.69-4.59-7.475-6.423-4.384-2.824-9.261-4.806-14.637-5.958-5.263-1.128-11.08-1.689-17.454-1.689h-32.27-2.575m19.05 66.989v-49.42l13.867-.001c2.122 0 4.19.061 6.205.183 1.963.119 3.853.347 5.672.684 1.778.33 3.477.798 5.099 1.405 1.569.587 3.051 1.356 4.448 2.31 1.454 1.012 2.799 2.207 4.02 3.574 1.207 1.351 2.241 2.864 3.103 4.543.865 1.683 1.532 3.519 2 5.512.47 1.995.706 4.124.706 6.39 0 4.393-.84 8.243-2.507 11.581-1.671 3.346-3.879 6-6.636 8-2.574 1.9-5.568 3.234-9.02 4.01-3.593.811-7.923 1.221-12.982 1.219l-13.974.006"/><path d="m518.75 502h2.612 79.48 2.612v-2.593-12.432-2.593h-2.612l-62.774-.006v-18l48.965-.003h2.612v-2.593-11.894-2.593h-2.612l-48.965-.004v-14.613l63.07-.002h2.612v-2.593-12.486-2.593h-2.612-79.78-2.612v2.593 79.81 2.593"/><path d="m621.5 417v2.593 79.81 2.593h2.609 40.623c2.956 0 5.671-.101 8.147-.305 2.499-.205 4.821-.524 6.965-.958 2.178-.441 4.178-1.01 5.998-1.71 1.815-.698 3.51-1.517 5.084-2.455 4.13-2.511 7.158-5.602 9.05-9.278 1.85-3.598 2.776-7.501 2.776-11.675 0-5.589-1.501-10.3-4.531-14.03-3.02-3.716-7.147-5.49-7.147-5.49 0 0 3.192-2.458 4.446-4.02 1.275-1.584 2.259-3.393 2.95-5.413.692-2.02 1.032-4.248 1.032-6.675 0-4.123-.954-7.761-2.88-10.862-1.889-3.042-4.512-5.536-7.832-7.468-1.515-.872-3.106-1.609-4.782-2.216-1.674-.607-3.5-1.092-5.478-1.459-1.946-.36-4.06-.615-6.342-.765-2.244-.147-4.728-.221-7.454-.221h-40.623-2.609m19.295 33.962v-16.5l23.07-.005c1.726 0 3.26.035 4.602.104 1.311.068 2.476.177 3.49.326.966.142 1.829.335 2.591.577.732.233 1.395.519 1.991.858 1.194.663 2.085 1.495 2.732 2.533.612.98.935 2.258.935 3.88 0 1.497-.268 2.704-.776 3.65-.535.998-1.255 1.818-2.18 2.484-.965.695-2.119 1.212-3.481 1.547-1.467.361-3.071.543-4.815.543l-28.16.003m0 33.638v-18.438l28.594-.006c4.893 0 8.506.859 10.863 2.474 2.119 1.453 3.15 3.56 3.15 6.611 0 1.912-.338 3.332-.949 4.291-.702 1.103-1.533 1.95-2.503 2.565-.62.41-1.309.749-2.113 1.04-.862.312-1.864.583-3 .809-1.143.227-2.484.393-4.02.493-1.582.104-3.375.156-5.378.156l-24.641.004"/><path d="m756.75 499.91v2.593h2.574 13.889 2.574v-2.593-35.22l29.877-43.11 2.837-4.081h-4.946-15.652-1.364l-.766 1.137-19.315 28.753-19.43-28.756-.766-1.134h-1.362-16.186-4.964l2.859 4.087c0 0 30.15 43.1 30.14 43.1l-.004 35.22"/><path d="m417 111v85h17.03v-33.838h50.806v-17.09h-50.806v-17.08h67.973v-16.995h-85"/><path d="m621 8.5v85h17.03v-33.838h50.806v-17.09h-50.806v-17.08h67.973v-16.995h-85"/><path d="m110.75 196.5h2.612 79.48 2.612v-2.593-12.432-2.593h-2.612l-62.774-.006v-18l48.965-.003h2.612v-2.593-11.894-2.593h-2.612l-48.965-.004v-14.613l63.07-.002h2.612v-2.593-12.486-2.593h-2.612-79.78-2.612v2.593 79.81 2.593"/><path d="m212.75 111v2.593 79.81 2.593h2.609 40.623c2.956 0 5.671-.101 8.147-.305 2.499-.205 4.821-.524 6.965-.958 2.178-.441 4.178-1.01 5.998-1.71 1.815-.698 3.51-1.517 5.084-2.455 4.13-2.511 7.158-5.602 9.05-9.278 1.85-3.598 2.776-7.501 2.776-11.675 0-5.589-1.501-10.3-4.531-14.03-3.02-3.716-7.147-5.49-7.147-5.49 0 0 3.192-2.458 4.446-4.02 1.275-1.584 2.259-3.393 2.95-5.413.692-2.02 1.032-4.248 1.032-6.675 0-4.123-.954-7.761-2.88-10.862-1.889-3.042-4.512-5.536-7.832-7.468-1.515-.872-3.106-1.609-4.782-2.216-1.674-.607-3.5-1.092-5.478-1.459-1.946-.36-4.06-.615-6.342-.765-2.244-.147-4.728-.221-7.454-.221h-40.623-2.609m19.295 33.962v-16.5l23.07-.005c1.726 0 3.26.035 4.602.104 1.311.068 2.476.177 3.49.326.966.142 1.829.335 2.591.577.732.233 1.395.519 1.991.858 1.194.663 2.085 1.495 2.732 2.533.612.98.935 2.258.935 3.88 0 1.497-.268 2.704-.776 3.65-.535.998-1.255 1.818-2.18 2.484-.965.695-2.119 1.212-3.481 1.547-1.467.361-3.071.543-4.815.543l-28.16.003m0 33.638v-18.438l28.594-.006c4.893 0 8.506.859 10.863 2.474 2.119 1.453 3.15 3.56 3.15 6.611 0 1.912-.338 3.332-.949 4.291-.702 1.103-1.533 1.95-2.503 2.565-.62.41-1.309.749-2.113 1.04-.862.312-1.864.583-3 .809-1.143.227-2.484.393-4.02.493-1.582.104-3.375.156-5.378.156l-24.641.004"/><path d="m348 193.91v2.593h2.574 13.889 2.574v-2.593-35.22l29.877-43.11 2.837-4.081h-4.946-15.652-1.364l-.766 1.137-19.315 28.753-19.43-28.756-.766-1.134h-1.362-16.186-4.964l2.859 4.087c0 0 30.15 43.1 30.14 43.1l-.004 35.22"/><path d="m9 212.25v2.593 79.81 2.593h2.609 40.623c2.956 0 5.671-.101 8.147-.305 2.499-.205 4.821-.524 6.965-.958 2.178-.441 4.178-1.01 5.998-1.71 1.815-.698 3.51-1.517 5.084-2.455 4.13-2.511 7.158-5.602 9.05-9.278 1.85-3.598 2.776-7.501 2.776-11.675 0-5.589-1.501-10.3-4.531-14.03-3.02-3.716-7.147-5.49-7.147-5.49 0 0 3.192-2.458 4.446-4.02 1.275-1.584 2.259-3.393 2.95-5.413.692-2.02 1.032-4.248 1.032-6.675 0-4.123-.954-7.761-2.88-10.862-1.889-3.042-4.512-5.536-7.832-7.468-1.515-.872-3.106-1.609-4.782-2.216-1.674-.607-3.5-1.092-5.478-1.459-1.946-.36-4.06-.615-6.342-.765-2.244-.147-4.728-.221-7.454-.221h-40.623-2.609m19.295 33.962v-16.5l23.07-.005c1.726 0 3.26.035 4.602.104 1.311.068 2.476.177 3.49.326.966.142 1.829.335 2.591.577.732.233 1.395.519 1.991.858 1.194.663 2.085 1.495 2.732 2.533.612.98.935 2.258.935 3.88 0 1.497-.268 2.704-.776 3.65-.535.998-1.255 1.818-2.18 2.484-.965.695-2.119 1.212-3.481 1.547-1.467.361-3.071.543-4.815.543l-28.16.003m0 33.638v-18.438l28.594-.006c4.893 0 8.506.859 10.863 2.474 2.119 1.453 3.15 3.56 3.15 6.611 0 1.912-.338 3.332-.949 4.291-.702 1.103-1.533 1.95-2.503 2.565-.62.41-1.309.749-2.113 1.04-.862.312-1.864.583-3 .809-1.143.227-2.484.393-4.02.493-1.582.104-3.375.156-5.378.156l-24.641.004"/><path d="m144.25 295.16v2.593h2.574 13.889 2.574v-2.593-35.22l29.877-43.11 2.837-4.081h-4.946-15.652-1.364l-.766 1.137-19.315 28.753-19.43-28.756-.766-1.134h-1.362-16.186-4.964l2.859 4.087c0 0 30.15 43.1 30.14 43.1l-.004 35.22"/><path d="m213 212.5v85h17.03v-33.838h50.806v-17.09h-50.806v-17.08h67.973v-16.995h-85"/><path d="m9 315v85h17.03v-33.838h50.806v-17.09h-50.806v-17.08h67.973v-16.995h-85"/><path d="m825 417.5v85h17.03v-33.838h50.806v-17.09h-50.806v-17.08h67.973v-16.995h-85"/><path d="m213 314.5v85h16.825v-31.64h23.852c0 .03 20.583 31.64 20.583 31.64h23.739l-24.367-34.398c0 0 3.122-1.374 4.527-2.258 2.414-1.519 4.46-3.351 6.126-5.493 1.665-2.14 2.934-4.543 3.802-7.195.811-2.477 1.293-6.434 1.293-9.705 0-2.612-.324-5.03-.979-7.257-.647-2.196-1.535-4.206-2.666-6.02-1.132-1.82-2.476-3.433-4.03-4.833-1.512-1.362-3.142-2.538-4.889-3.527-1.726-.959-3.531-1.72-5.428-2.292-1.838-.554-3.739-.983-5.702-1.288-1.94-.301-3.932-.498-5.976-.592-1.994-.091-4.01-.137-6.06-.137h-40.651m16.825 33.807v-16.885h24.306c3.327 0 6.086.13 8.268.387 1.992.234 3.719.746 5.194 1.528 1.339.724 2.383 1.67 3.147 2.845.524.805 1.082 2.341 1.082 3.433 0 .823-.415 2.711-.776 3.429-.527 1.046-1.24 1.904-2.159 2.6-1.252.906-2.818 1.584-4.677 1.997-1.988.441-4.489.667-7.49.667l-26.896-.001"/><path d="m9 417.5v85h16.825v-31.64h23.852c0 .03 20.583 31.64 20.583 31.64h23.739l-24.367-34.398c0 0 3.122-1.374 4.527-2.258 2.414-1.519 4.46-3.351 6.126-5.493 1.665-2.14 2.934-4.543 3.802-7.195.811-2.477 1.293-6.434 1.293-9.705 0-2.612-.324-5.03-.979-7.257-.647-2.196-1.535-4.206-2.666-6.02-1.132-1.82-2.476-3.433-4.03-4.833-1.512-1.362-3.142-2.538-4.889-3.527-1.726-.959-3.531-1.72-5.428-2.292-1.838-.554-3.739-.983-5.702-1.288-1.94-.301-3.932-.498-5.976-.592-1.994-.091-4.01-.137-6.06-.137h-40.651m16.825 33.807v-16.885h24.306c3.327 0 6.086.13 8.268.387 1.992.234 3.719.746 5.194 1.528 1.339.724 2.383 1.67 3.147 2.845.524.805 1.082 2.341 1.082 3.433 0 .823-.415 2.711-.776 3.429-.527 1.046-1.24 1.904-2.159 2.6-1.252.906-2.818 1.584-4.677 1.997-1.988.441-4.489.667-7.49.667l-26.896-.001"/><path d="m416.75 212.5v85h16.825v-31.64h23.852c0 .03 20.583 31.64 20.583 31.64h23.739l-24.367-34.398c0 0 3.122-1.374 4.527-2.258 2.414-1.519 4.46-3.351 6.126-5.493 1.665-2.14 2.934-4.543 3.802-7.195.811-2.477 1.293-6.434 1.293-9.705 0-2.612-.324-5.03-.979-7.257-.647-2.196-1.535-4.206-2.666-6.02-1.132-1.82-2.476-3.433-4.03-4.833-1.512-1.362-3.142-2.538-4.889-3.527-1.726-.959-3.531-1.72-5.428-2.292-1.838-.554-3.739-.983-5.702-1.288-1.94-.301-3.932-.498-5.976-.592-1.994-.091-4.01-.137-6.06-.137h-40.651m16.825 33.807v-16.885h24.306c3.327 0 6.086.13 8.268.387 1.992.234 3.719.746 5.194 1.528 1.339.724 2.383 1.67 3.147 2.845.524.805 1.082 2.341 1.082 3.433 0 .823-.415 2.711-.776 3.429-.527 1.046-1.24 1.904-2.159 2.6-1.252.906-2.818 1.584-4.677 1.997-1.988.441-4.489.667-7.49.667l-26.896-.001"/><path d="m621 111v85h16.825v-31.64h23.852c0 .03 20.583 31.64 20.583 31.64h23.739l-24.367-34.398c0 0 3.122-1.374 4.527-2.258 2.414-1.519 4.46-3.351 6.126-5.493 1.665-2.14 2.934-4.543 3.802-7.195.811-2.477 1.293-6.434 1.293-9.705 0-2.612-.324-5.03-.979-7.257-.647-2.196-1.535-4.206-2.666-6.02-1.132-1.82-2.476-3.433-4.03-4.833-1.512-1.362-3.142-2.538-4.889-3.527-1.726-.959-3.531-1.72-5.428-2.292-1.838-.554-3.739-.983-5.702-1.288-1.94-.301-3.932-.498-5.976-.592-1.994-.091-4.01-.137-6.06-.137h-40.651m16.825 33.807v-16.885h24.306c3.327 0 6.086.13 8.268.387 1.992.234 3.719.746 5.194 1.528 1.339.724 2.383 1.67 3.147 2.845.524.805 1.082 2.341 1.082 3.433 0 .823-.415 2.711-.776 3.429-.527 1.046-1.24 1.904-2.159 2.6-1.252.906-2.818 1.584-4.677 1.997-1.988.441-4.489.667-7.49.667l-26.896-.001"/><path d="m825 8v85h16.825v-31.64h23.852c0 .03 20.583 31.64 20.583 31.64h23.739l-24.367-34.398c0 0 3.122-1.374 4.527-2.258 2.414-1.519 4.46-3.351 6.126-5.493 1.665-2.14 2.934-4.543 3.802-7.195.811-2.477 1.293-6.434 1.293-9.705 0-2.612-.324-5.03-.979-7.257-.647-2.196-1.535-4.206-2.666-6.02-1.132-1.82-2.476-3.433-4.03-4.833-1.512-1.362-3.142-2.538-4.889-3.527-1.726-.959-3.531-1.72-5.428-2.292-1.838-.554-3.739-.983-5.702-1.288-1.94-.301-3.932-.498-5.976-.592-1.994-.091-4.01-.137-6.06-.137h-40.651m16.825 33.807v-16.885h24.306c3.327 0 6.086.13 8.268.387 1.992.234 3.719.746 5.194 1.528 1.339.724 2.383 1.67 3.147 2.845.524.805 1.082 2.341 1.082 3.433 0 .823-.415 2.711-.776 3.429-.527 1.046-1.24 1.904-2.159 2.6-1.252.906-2.818 1.584-4.677 1.997-1.988.441-4.489.667-7.49.667l-26.896-.001"/><path d="m561.29 277.85l25.327-32.1v51.754h17.388v-85h-16.979l-25.736 33.955-25.395-33.955h-16.89v85h17.15c0 0 0-51.664.001-51.664l25.14 32.01"/><path d="m765.54 176.35l25.327-32.1v51.754h17.388v-85h-16.979l-25.736 33.955-25.395-33.955h-16.89v85h17.15c0 0 0-51.664.001-51.664l25.14 32.01"/><path d="m970.29 73.35l25.327-32.1v51.754h17.388v-85h-16.979l-25.736 33.955-25.395-33.955h-16.89v85h17.15c0 0 0-51.664.001-51.664l25.14 32.01"/><path d="m867.29 176.35l25.327-32.1v51.754h17.388v-85h-16.979l-25.736 33.955-25.395-33.955h-16.89v85h17.15c0 0 0-51.664.001-51.664l25.14 32.01"/><path d="m51.29 73.35l25.327-32.1v51.754h17.388v-85h-16.979l-25.736 33.955-25.395-33.955h-16.89v85h17.15c0 0 0-51.664.001-51.664l25.14 32.01"/><path d="m459.29 379.85l25.327-32.1v51.754h17.388v-85h-16.979l-25.736 33.955-25.395-33.955h-16.89v85h17.15c0 0 0-51.664.001-51.664l25.14 32.01"/><path d="m357.29 379.85l25.327-32.1v51.754h17.388v-85h-16.979l-25.736 33.955-25.395-33.955h-16.89v85h17.15c0 0 0-51.664.001-51.664l25.14 32.01"/><path d="m153.29 482.1l25.327-32.1v51.754h17.388v-85h-16.979l-25.736 33.955-25.395-33.955h-16.89v85h17.15c0 0 0-51.664.001-51.664l25.14 32.01"/><path d="m255.29 482.1l25.327-32.1v51.754h17.388v-85h-16.979l-25.736 33.955-25.395-33.955h-16.89v85h17.15c0 0 0-51.664.001-51.664l25.14 32.01"/><path d="m663.29 278.1l25.327-32.1v51.754h17.388v-85h-16.979l-25.736 33.955-25.395-33.955h-16.89v85h17.15c0 0 0-51.664.001-51.664l25.14 32.01"/></g></svg>
