<svg viewBox="0 0 1697 612" xmlns="http://www.w3.org/2000/svg"><g fill="#fdfdfd" fill-rule="evenodd"><path d="m508.04 118.96l1.713 2.404 1.713-2.407 16.907-23.83v38.605 2.062h2.093 11.29 2.093v-2.062-63.45-2.062h-2.093-10.769-1.089l-.625.879-19.519 27.11-19.04-27.11-.625-.878h-1.088-10.899-2.093v2.062 63.45 2.062h2.093 10.899 2.093v-2.062c0 0 0-38.605-.004-38.605l16.957 23.833"/><path d="m645.88 88.3l6.923 18.795h-13.786l6.863-18.795m17.746 47.702h1.367 11.497 2.98l-1.129-2.861-25.19-63.851-.509-1.289h-1.342-10.542-1.342l-.509 1.288-25.23 63.851-1.131 2.862h2.982 11.123 1.357l.502-1.308 5.505-14.282c0 .004 23.776 0 23.776 0 0 .031 5.346 14.268 5.346 14.268l.496 1.322"/><path d="m748 68.22v2.061 63.43 2.061h2.061 24.41c3.119 0 6.03-.139 8.743-.417 2.733-.281 5.282-.718 7.648-1.313 2.391-.601 4.61-1.379 6.656-2.334 2.056-.96 3.971-2.111 5.742-3.455 1.955-1.466 3.712-3.169 5.26-5.1 1.542-1.924 2.84-4.01 3.893-6.251 1.051-2.24 1.849-4.634 2.395-7.18.544-2.539.816-5.164.816-7.874 0-2.892-.31-5.678-.93-8.356-.621-2.683-1.526-5.199-2.714-7.544-1.194-2.357-2.672-4.517-4.433-6.477-1.758-1.957-3.753-3.669-5.982-5.135-3.509-2.258-7.412-3.842-11.714-4.763-4.212-.901-8.867-1.35-13.968-1.35h-25.822-2.061m15.242 53.55v-39.505h11.1c1.698 0 3.353.049 4.965.146 1.571.095 3.083.277 4.539.547 1.423.263 2.782.638 4.08 1.123 1.256.469 2.441 1.084 3.559 1.847 1.163.809 2.24 1.765 3.217 2.857.966 1.08 1.793 2.289 2.484 3.632.692 1.345 1.226 2.813 1.602 4.406.376 1.595.565 3.297.565 5.108 0 3.512-.672 6.589-2.01 9.257-1.337 2.675-3.104 4.797-5.31 6.395-2.06 1.519-4.456 2.586-7.221 3.209-2.875.648-6.34.976-10.389.975l-11.183.005"/><path d="m884 136h2.089 63.58 2.089v-2.075-9.946-2.075h-2.089l-50.22-.005v-14.4l39.17-.002h2.089v-2.075-9.515-2.075h-2.089l-39.17-.003v-11.69l50.46-.002h2.089v-2.075-9.989-2.075h-2.089-63.821-2.089v2.075 63.851 2.075"/><path d="m1020 68v2.075 63.851 2.075h2.087 32.499c2.365 0 4.537-.081 6.517-.244 1.999-.164 3.857-.42 5.572-.767 1.743-.353 3.342-.808 4.798-1.368 1.452-.559 2.808-1.213 4.067-1.964 3.304-2.01 5.726-4.481 7.238-7.422 1.48-2.879 2.221-6 2.221-9.34 0-4.471-1.201-8.24-3.625-11.227-2.412-2.973-5.718-4.392-5.718-4.392 0 0 2.553-1.967 3.557-3.214 1.02-1.267 1.807-2.714 2.36-4.331.553-1.617.826-3.399.826-5.34 0-3.299-.763-6.209-2.304-8.689-1.512-2.433-3.609-4.429-6.266-5.975-1.212-.698-2.485-1.287-3.826-1.773-1.339-.486-2.8-.874-4.383-1.167-1.557-.288-3.248-.492-5.074-.612-1.795-.118-3.783-.177-5.963-.177h-32.499-2.087m15.436 27.17v-13.2l18.457-.004c1.381 0 2.608.028 3.682.083 1.049.054 1.981.141 2.792.26.772.113 1.463.268 2.072.462.586.186 1.116.415 1.593.686.955.53 1.668 1.196 2.185 2.026.489.784.748 1.806.748 3.104 0 1.198-.215 2.163-.621 2.92-.428.798-1 1.454-1.744 1.987-.772.556-1.695.97-2.785 1.237-1.174.288-2.457.434-3.852.434l-22.529.002m0 26.91v-14.75l22.875-.005c3.915 0 6.805.687 8.69 1.98 1.695 1.163 2.52 2.848 2.52 5.289 0 1.53-.271 2.665-.759 3.433-.562.883-1.227 1.56-2 2.052-.496.328-1.047.599-1.69.832-.69.249-1.491.466-2.403.647-.915.182-1.987.314-3.215.395-1.265.083-2.7.125-4.302.125l-19.713.003"/><path d="m1182.42 133.93v2.075h2.061 11.12 2.061v-2.075-28.18l23.917-34.485 2.271-3.265h-3.959-12.53-1.092l-.613.909-15.463 23-15.555-23-.613-.907h-1.09-12.958-3.974l2.289 3.27c0 0 24.14 34.478 24.13 34.48l-.003 28.18"/><path d="m68 203v340.01h68.11v-135.35h203.23v-68.35l-203.23.002v-68.33l271.89.002v-67.982h-340"/><path d="m605.62 467.23c-12.325-5.213-22.923-12.347-31.872-21.439-8.981-9.125-16.01-19.872-21.11-32.31-5.09-12.422-7.643-25.855-7.643-40.37 0-14.515 2.553-27.948 7.643-40.37 5.098-12.441 12.13-23.19 21.11-32.31 8.96-9.104 19.573-16.28 31.917-21.566 12.228-5.236 25.509-7.859 39.943-7.859 14.428 0 27.665 2.621 39.812 7.85 12.276 5.285 22.861 12.464 31.827 21.574 8.981 9.125 16.01 19.872 21.11 32.31 5.09 12.422 7.643 25.855 7.643 40.37 0 14.515-2.553 27.948-7.643 40.37-5.098 12.441-12.13 23.19-21.11 32.31-8.955 9.1-19.523 16.235-31.781 21.448-12.159 5.17-25.412 7.763-39.858 7.763-14.451 0-27.749-2.595-39.989-7.771m86.52 69.882c14.655-3.923 28.31-9.526 40.943-16.808 12.636-7.284 24.06-16.07 34.25-26.333 10.185-10.259 18.887-21.713 26.09-34.34 7.199-12.617 12.759-26.22 16.677-40.786 3.931-14.612 5.893-29.899 5.893-45.84 0-15.937-1.961-31.26-5.89-45.932-3.921-14.647-9.485-28.26-16.694-40.821-7.205-12.553-15.903-23.964-26.08-34.22-10.192-10.267-21.616-19.05-34.25-26.333-12.633-7.282-26.288-12.885-40.943-16.808-14.679-3.929-30.07-5.89-46.14-5.89-16.07 0-31.462 1.96-46.14 5.89-14.655 3.923-28.31 9.526-40.943 16.808-12.626 7.279-24.08 16.05-34.33 26.306-10.258 10.258-19 21.679-26.21 34.24-7.217 12.574-12.751 26.2-16.602 40.868-3.851 14.662-5.773 29.964-5.773 45.885 0 23.908 4.3 46.26 12.913 66.976 8.588 20.656 20.476 38.674 35.637 53.984 15.182 15.331 33.18 27.345 53.934 36.02 20.794 8.689 43.33 13.02 67.52 13.02 16.07 0 31.462-1.96 46.14-5.89"/><path d="m884 202.8v340h67.3v-126.56h95.41c0 .12 82.33 126.56 82.33 126.56h94.96l-97.47-137.59c0 0 12.486-5.495 18.11-9.03 9.655-6.076 17.84-13.406 24.505-21.972 6.66-8.56 11.735-18.17 15.207-28.78 3.242-9.907 5.173-25.737 5.173-38.821 0-10.449-1.296-20.13-3.917-29.03-2.587-8.783-6.14-16.824-10.662-24.1-4.526-7.279-9.905-13.732-16.12-19.334-6.05-5.448-12.569-10.153-19.556-14.11-6.904-3.836-14.12-6.879-21.713-9.167-7.353-2.216-14.957-3.933-22.809-5.152-7.758-1.204-15.726-1.993-23.903-2.368-7.974-.366-16.05-.549-24.24-.549h-162.6m67.3 135.23v-67.54l97.23.001c13.307 0 24.346.521 33.07 1.546 7.969.937 14.876 2.986 20.775 6.11 5.357 2.895 9.531 6.68 12.59 11.381 2.094 3.218 4.328 9.364 4.328 13.734 0 3.293-1.659 10.845-3.105 13.717-2.106 4.184-4.959 7.618-8.636 10.399-5.01 3.623-11.272 6.337-18.709 7.986-7.953 1.764-17.957 2.669-29.96 2.669l-107.58-.004"/><path d="m1461.14 464.19l101.31-128.4v207.02h69.55v-340h-67.916l-102.94 135.82-101.58-135.82h-67.56v340h68.6c0 0 0-206.65.005-206.65l100.54 128.04"/></g></svg>